<svg width="1162" height="995" viewBox="0 0 1162 995" fill="none" xmlns="http://www.w3.org/2000/svg">
<path d="M1011.1 359.737V168.686H1043.53V359.737H1011.1ZM931.789 280.422V248.001H1122.84V280.422H931.789Z" fill="black"/>
<path d="M742.024 392.958L728.413 439.394H469.012L482.623 392.958H742.024ZM620.33 706L473.816 526.661L473.015 493.035H545.872C564.82 493.035 580.966 490.366 594.309 485.029C607.653 479.558 617.861 471.418 624.933 460.61C632.005 449.668 635.541 435.924 635.541 419.378C635.541 394.959 628.202 375.811 613.524 361.934C598.846 347.923 576.295 340.917 545.872 340.917H469.012L482.623 296.083H545.872C578.43 296.083 605.118 301.487 625.934 312.295C646.883 322.97 662.362 337.648 672.37 356.329C682.511 374.877 687.582 395.893 687.582 419.378C687.582 440.594 682.911 460.143 673.571 478.023C664.364 495.771 649.552 510.048 629.136 520.857C608.854 531.665 582.033 537.069 548.674 537.069H547.473L682.778 702.798V706H620.33ZM742.024 296.083L728.413 342.519L524.255 340.917L537.866 296.083H742.024Z" fill="black"/>
<path d="M968.696 178.697C900.809 94.1639 806.201 35.22 700.4 11.5403C594.599 -12.1394 483.891 0.85204 386.447 48.3822C289.002 95.9124 210.611 175.157 164.138 273.111C117.666 371.064 105.874 481.906 130.698 587.445L191.694 573.098C170.124 481.394 180.37 385.082 220.751 299.97C261.131 214.857 329.246 146 413.917 104.7C498.587 63.4008 594.783 52.1124 686.714 72.688C778.646 93.2635 860.852 144.48 919.839 217.933L968.696 178.697Z" fill="black"/>
<path d="M220.304 797.303C288.191 881.836 382.799 940.78 488.6 964.46C594.401 988.139 705.109 975.148 802.553 927.618C899.998 880.088 978.389 800.843 1024.86 702.889C1071.33 604.936 1083.13 494.094 1058.3 388.555L996.244 403.152C1017.76 494.615 1007.54 590.674 967.264 675.563C926.99 760.452 859.053 829.128 774.605 870.319C690.157 911.51 594.214 922.769 502.524 902.248C410.834 881.726 328.844 830.644 270.011 757.384L220.304 797.303Z" fill="black"/>
<path d="M154.295 659.727C153.751 646.334 166.278 636.208 179.26 639.546L391.624 694.16C407.547 698.255 412.002 718.747 399.216 729.084L195.745 893.563C182.958 903.9 163.855 895.249 163.188 878.821L154.295 659.727Z" fill="black"/>
</svg>
