<svg width="772" height="670" viewBox="0 0 772 670" fill="none" xmlns="http://www.w3.org/2000/svg">
<path d="M431.52 366.99V463.58C431.52 480.156 438.104 496.053 449.825 507.774C461.546 519.495 477.444 526.08 494.02 526.08H671.02V623.24C671.02 635.44 666.173 647.14 657.546 655.767C648.92 664.394 637.219 669.24 625.02 669.24H46.0195C33.8196 669.24 22.1193 664.394 13.4926 655.767C4.86594 647.14 0.0195313 635.44 0.0195312 623.24V191.42C0.0195312 179.22 4.86594 167.52 13.4926 158.893C22.1193 150.266 33.8196 145.42 46.0195 145.42H625.02C637.219 145.42 648.92 150.266 657.546 158.893C666.173 167.52 671.02 179.22 671.02 191.42V304.49H494.02C477.444 304.49 461.546 311.075 449.825 322.796C438.104 334.517 431.52 350.414 431.52 366.99Z" fill="black"/>
<path d="M736.34 344.26H496.01C486.675 344.273 477.727 347.991 471.131 354.596C464.535 361.202 460.83 370.155 460.83 379.49V459.04C460.83 463.666 461.741 468.247 463.512 472.52C465.283 476.794 467.878 480.677 471.149 483.948C474.421 487.218 478.305 489.813 482.579 491.582C486.853 493.351 491.434 494.261 496.06 494.26H736.34C740.966 494.261 745.547 493.351 749.821 491.582C754.096 489.813 757.979 487.218 761.251 483.948C764.522 480.677 767.118 476.794 768.888 472.52C770.659 468.247 771.57 463.666 771.57 459.04V379.49C771.57 370.146 767.858 361.186 761.251 354.579C754.645 347.972 745.684 344.26 736.34 344.26ZM538.91 451.93C532.449 451.93 526.132 450.014 520.76 446.424C515.387 442.834 511.2 437.732 508.727 431.762C506.254 425.793 505.607 419.224 506.868 412.886C508.128 406.549 511.24 400.728 515.809 396.159C520.378 391.59 526.199 388.478 532.536 387.218C538.874 385.957 545.443 386.604 551.412 389.077C557.382 391.55 562.484 395.737 566.074 401.11C569.664 406.482 571.58 412.799 571.58 419.26C571.581 423.551 570.737 427.8 569.096 431.764C567.455 435.728 565.048 439.33 562.014 442.364C558.98 445.398 555.378 447.804 551.414 449.446C547.45 451.087 543.201 451.931 538.91 451.93Z" fill="black"/>
<path d="M250.359 123.07H596.709L575.529 74.07C566.009 52.07 544.799 40.55 524.269 46.3L250.359 123.07Z" fill="black"/>
<path d="M126.83 119.85H163.97L448.97 44.85L422.09 14.61C415.855 7.59723 407.516 2.79355 398.322 0.918625C389.127 -0.9563 379.573 0.198487 371.09 4.20998L126.83 119.85Z" fill="black"/>
</svg>
