<svg width="21" height="20" viewBox="0 0 21 20" fill="none" xmlns="http://www.w3.org/2000/svg">
<path d="M19.3714 20C15.8082 20 4.9449 20 1.53061 20C0.832653 20 0.502041 19.3554 0.502041 18.6162C0.502041 16.777 0.502041 13.213 0.502041 9.69388C3.6551 10.7193 6.25102 11.3539 8.75102 11.5406C8.75102 11.9039 8.75102 12.9791 8.75102 13.5217C8.75102 13.7083 8.85714 13.8477 8.99184 13.8477C9.61837 13.8477 11.298 13.8477 11.9673 13.8477C12.1265 13.8477 12.249 13.6934 12.249 13.5017C12.249 12.9119 12.249 11.7546 12.249 11.5381C14.7204 11.3365 17.3224 10.6944 20.498 9.69139C20.498 13.1782 20.498 16.6625 20.498 18.554C20.5 19.45 20.0571 20 19.3714 20ZM11.1755 11.5679C11.4245 11.5679 11.6265 11.5381 11.6265 11.8417V12.6655C11.6265 12.9667 11.4245 13.0762 11.1755 13.0762H9.82449C9.57551 13.0762 9.37347 12.9667 9.37347 12.6655V11.8417C9.37347 11.5381 9.57551 11.5679 9.82449 11.5679H11.1755ZM0.5 8.76804C0.5 6.96366 0.5 3.9995 0.5 3.9995C0.5 3.34993 0.94898 2.61573 1.5 2.61573H7.62449V1.84669C7.62449 0.826282 8.29592 0 9.12449 0H11.8735C12.702 0 13.3735 0.826282 13.3735 1.84669V2.61573H19.5C20.0531 2.61573 20.5 3.38477 20.5 3.9995C20.5 3.9995 20.5 6.91887 20.5 8.76804C12.5551 11.2743 8.21633 11.2792 0.5 8.76804ZM12.3755 2.30712C12.3755 1.62768 11.9265 1.07516 11.3755 1.07516H9.62653C9.07347 1.07516 8.62653 1.62519 8.62653 2.30712V2.61573H12.3755V2.30712Z" fill="#2E3F52"/>
</svg>
