<?xml version="1.0" standalone="no"?>
<!DOCTYPE svg PUBLIC "-//W3C//DTD SVG 20010904//EN"
 "http://www.w3.org/TR/2001/REC-SVG-20010904/DTD/svg10.dtd">
<svg version="1.0" xmlns="http://www.w3.org/2000/svg"
 width="1078.000000pt" height="231.000000pt" viewBox="0 0 1078.000000 231.000000"
 preserveAspectRatio="xMidYMid meet">

<g transform="translate(0.000000,231.000000) scale(0.100000,-0.100000)"
fill="#000000" stroke="none">
<path d="M5350 1990 c-26 -26 -25 -55 2 -74 29 -21 51 -20 71 2 23 26 21 58
-5 76 -30 21 -44 20 -68 -4z"/>
<path d="M5287 1652 c-53 -87 -103 -167 -111 -177 -13 -19 -19 -17 -150 39
-75 33 -139 56 -142 53 -4 -3 7 -61 24 -129 17 -68 44 -176 59 -240 l28 -118
397 0 396 0 7 33 c4 17 29 123 56 234 27 111 49 206 49 212 0 16 -14 14 -63
-8 -23 -11 -78 -36 -121 -55 -43 -20 -84 -36 -91 -36 -7 0 -29 28 -50 63 -114
187 -178 287 -184 287 -4 0 -51 -71 -104 -158z m498 -497 c0 -20 -8 -20 -389
-23 -235 -1 -394 2 -399 7 -5 5 -7 17 -4 25 6 15 49 16 399 14 385 -3 393 -3
393 -23z"/>
<path d="M4770 1710 c-17 -31 -4 -69 24 -76 37 -9 65 4 72 33 10 37 -7 58 -49
61 -28 2 -38 -1 -47 -18z"/>
<path d="M5918 1705 c-13 -28 -5 -50 24 -68 25 -16 67 0 74 30 10 37 -7 57
-49 61 -32 3 -39 -1 -49 -23z"/>
<path d="M4049 1681 c-104 -28 -177 -70 -251 -143 -71 -70 -124 -161 -148
-253 -7 -27 -16 -54 -21 -59 -4 -5 -22 20 -39 55 -107 213 -257 337 -421 347
-107 6 -165 -14 -222 -78 -67 -75 -82 -112 -82 -205 0 -96 23 -153 85 -209 48
-43 78 -56 128 -56 78 1 153 54 192 137 27 57 20 104 -20 145 -56 56 -95 29
-93 -64 3 -93 -31 -147 -94 -148 -70 0 -135 96 -136 204 0 56 3 68 37 120 53
79 110 111 197 111 55 0 76 -6 140 -37 111 -56 214 -161 282 -288 30 -57 36
-77 41 -160 3 -52 7 -104 9 -115 2 -20 -5 -20 -1490 -23 l-1492 -2 -3 27 c-3
24 -8 28 -40 31 -29 2 -43 -3 -72 -28 -20 -18 -36 -40 -36 -51 0 -10 17 -34
37 -54 28 -28 44 -35 67 -33 28 3 39 13 50 51 5 16 83 17 1498 15 l1493 -3 45
-87 c88 -172 189 -270 365 -356 141 -70 224 -87 415 -87 127 0 171 4 246 23
112 27 201 60 308 113 120 60 117 68 -4 11 -58 -28 -157 -65 -220 -83 -113
-33 -118 -34 -310 -34 l-195 0 -95 34 c-158 56 -274 133 -368 245 -56 67 -112
166 -112 199 l0 27 175 0 c127 0 177 -3 184 -12 52 -67 105 -115 156 -141 53
-28 70 -32 145 -32 76 0 92 3 151 32 41 21 86 54 123 92 l58 61 679 0 680 0
55 -59 c36 -39 79 -71 122 -93 60 -30 75 -33 152 -33 122 1 201 41 277 141
l34 44 177 -2 177 -3 -3 -25 c-6 -40 -53 -126 -104 -189 -91 -113 -229 -204
-388 -257 -81 -27 -93 -28 -280 -29 -186 0 -199 1 -295 29 -102 30 -241 85
-283 112 -13 9 -26 13 -29 11 -5 -6 28 -25 112 -65 306 -146 654 -162 912 -42
186 87 297 193 389 374 l41 81 1492 3 c1414 2 1492 1 1497 -15 22 -73 83 -70
140 5 l26 34 -38 39 c-31 32 -45 39 -76 39 -35 0 -39 -3 -45 -30 l-6 -30
-1491 2 c-1270 3 -1491 5 -1488 17 2 8 6 62 11 120 5 70 14 118 26 141 38 74
95 148 165 214 191 180 389 176 488 -9 24 -44 21 -149 -6 -201 -42 -81 -109
-114 -160 -78 -35 24 -46 55 -47 126 0 82 -18 108 -62 92 -36 -12 -75 -86 -66
-123 32 -133 166 -215 276 -167 126 55 187 241 122 373 -14 28 -47 71 -72 96
-55 54 -113 72 -215 65 -158 -10 -323 -150 -419 -355 -13 -29 -27 -53 -31 -53
-4 0 -14 26 -22 58 -38 139 -146 282 -266 349 -164 93 -389 97 -555 9 -78 -41
-191 -154 -233 -233 -68 -129 -84 -255 -46 -378 7 -27 14 -52 14 -57 0 -9
-1303 -11 -1312 -2 -4 3 2 36 13 72 29 102 24 173 -23 308 -36 102 -161 240
-268 294 -119 60 -281 76 -411 41z m303 -66 c91 -32 138 -62 209 -134 122
-125 169 -310 116 -456 l-22 -60 -230 0 -230 0 0 71 c0 69 2 74 47 139 25 37
44 74 41 81 -16 43 -116 13 -166 -51 -39 -49 -57 -107 -57 -181 l0 -64 -184 0
-185 0 -7 56 c-18 149 22 312 105 425 124 168 366 243 563 174z m2385 3 c178
-57 300 -188 348 -373 17 -64 22 -186 10 -247 l-7 -38 -183 0 -182 0 0 68 c0
119 -61 216 -153 243 -31 9 -43 9 -55 -1 -22 -18 -20 -27 26 -97 46 -69 63
-128 53 -179 l-6 -34 -227 0 c-226 0 -228 0 -239 23 -23 48 -42 123 -42 166 0
60 34 182 66 237 32 54 121 146 176 180 117 74 283 95 415 52z m-2152 -707
c10 -17 -46 -59 -102 -76 -36 -12 -70 -15 -99 -11 -68 9 -144 53 -144 83 0 10
34 13 169 13 95 0 172 -4 176 -9z m1955 -4 c0 -15 -34 -49 -66 -65 -35 -18
-117 -25 -160 -13 -51 14 -108 51 -112 74 -3 16 11 17 167 17 135 0 171 -3
171 -13z"/>
<path d="M5640 586 c0 -2 7 -7 16 -10 8 -3 12 -2 9 4 -6 10 -25 14 -25 6z"/>
</g>
</svg>
