<svg width="1246" height="813" viewBox="0 0 1246 813" fill="none" xmlns="http://www.w3.org/2000/svg">
<path d="M81.9967 122.993C104.639 122.993 122.993 104.639 122.993 81.9967C122.993 59.3549 104.639 41 81.9967 41C59.3549 41 41 59.3549 41 81.9967C41 104.639 59.3549 122.993 81.9967 122.993Z" stroke="black" stroke-width="81.9934" stroke-linecap="round" stroke-linejoin="round"/>
<path d="M81.9967 445.286C104.639 445.286 122.993 426.931 122.993 404.289C122.993 381.647 104.639 363.292 81.9967 363.292C59.3549 363.292 41 381.647 41 404.289C41 426.931 59.3549 445.286 81.9967 445.286Z" stroke="black" stroke-width="81.9934" stroke-linecap="round" stroke-linejoin="round"/>
<path d="M81.9967 771.907C104.639 771.907 122.993 753.552 122.993 730.911C122.993 708.269 104.639 689.914 81.9967 689.914C59.3549 689.914 41 708.269 41 730.911C41 753.552 59.3549 771.907 81.9967 771.907Z" stroke="black" stroke-width="81.9934" stroke-linecap="round" stroke-linejoin="round"/>
<path d="M315.84 75.2375H1190.44M315.84 403.211H1190.44M315.84 731.185H1190.44" stroke="black" stroke-width="109.325" stroke-linecap="round" stroke-linejoin="round"/>
</svg>
