<svg width="1225" height="1085" viewBox="0 0 1225 1085" fill="none" xmlns="http://www.w3.org/2000/svg">
<path d="M123.735 969.839C118.229 965.48 112.724 961.121 107.218 956.648C76.5931 931.414 79.5753 878.882 118.573 860.988C130.043 855.712 144.266 854.336 157.227 854.336C274.221 853.762 391.101 853.648 508.095 854.221C530.117 854.336 550.992 860.759 563.38 881.749C579.209 908.359 573.932 941.164 545.143 959.172C539.866 962.498 534.476 965.824 529.199 969.15C529.429 970.068 529.658 970.871 530.002 971.789C532.411 971.789 534.934 971.789 537.343 971.789C559.824 971.789 582.191 972.477 604.672 971.674C633.232 970.756 657.549 998.055 658.466 1024.67C659.384 1051.39 643.326 1071 623.942 1079.72C617.633 1082.59 610.178 1083.85 603.181 1083.97C575.194 1084.54 547.093 1084.31 519.106 1084.31C366.899 1084.31 214.692 1084.19 62.485 1084.42C45.0506 1084.42 30.1396 1079.72 17.2932 1068.14C-3.00867 1049.78 -4.84387 1019.39 8.69073 997.367C19.0137 980.62 33.6953 971.559 53.6531 971.674C76.5931 971.674 99.5331 971.674 122.473 971.674C122.817 971.1 123.276 970.412 123.735 969.839Z" fill="black"/>
<path d="M679.004 530.143C666.877 542.788 655.372 554.914 643.66 566.937C633.192 577.613 622.412 587.978 612.151 598.757C608.731 602.385 606.658 601.97 603.445 598.654C522.289 516.979 441.03 435.409 359.874 353.839C357.905 351.87 356.246 349.589 354.588 347.516C437.609 264.391 520.32 181.681 602.823 98.763C607.072 94.5135 608.627 95.0317 612.462 98.9703C692.996 179.815 773.737 260.453 854.375 341.194C860.801 347.62 860.697 348.035 854.167 354.564C832.816 376.123 811.568 397.682 789.595 419.966C798.82 429.501 808.355 439.659 818.202 449.609C897.181 529.21 976.264 608.707 1055.24 688.308C1102.82 736.193 1150.39 783.975 1197.76 831.963C1211.96 846.267 1220.66 863.161 1223.67 883.58C1228.85 919.234 1203.67 951.572 1176.92 962.559C1162.62 968.467 1148.11 969.607 1133.5 967.638C1118.78 965.668 1106.34 958.102 1095.77 947.53C1017.31 869.276 938.743 791.023 860.386 712.665C801.515 653.794 743.058 594.715 684.497 535.74C683.149 534.392 681.906 533.045 679.004 530.143Z" fill="black"/>
<path d="M309.714 385.552C312.409 388.04 314.585 389.905 316.658 391.874C398.436 473.756 480.214 555.637 562.095 637.415C566.759 642.079 566.966 645.188 562.095 649.541C549.657 660.632 537.427 671.722 525.404 683.227C509.028 698.877 476.69 695.768 460.935 679.806C405.38 623.63 349.204 567.971 293.441 512.002C284.839 503.399 276.443 494.485 268.67 485.157C256.647 470.543 257.994 442.143 270.535 427.529C282.869 413.226 296.344 399.855 309.714 385.552Z" fill="black"/>
<path d="M900.267 306.366C888.244 294.343 874.666 280.869 861.089 267.291C791.023 197.018 721.061 126.642 650.892 56.5762C645.606 51.3938 645.71 48.699 651.203 44.0349C662.293 34.603 673.28 24.8602 683.437 14.4954C704.374 -6.95953 734.639 -2.91729 753.296 15.6356C814.862 77.0983 876.118 138.872 937.477 200.439C947.634 210.596 953.024 223.552 952.609 237.337C952.298 250.811 946.598 263.456 936.544 273.095C925.039 284.289 912.912 294.861 900.267 306.366Z" fill="black"/>
</svg>
