<svg width="2224" height="1499" viewBox="0 0 2224 1499" fill="none" xmlns="http://www.w3.org/2000/svg">
<rect y="300" width="1132" height="1198" rx="100" fill="black"/>
<path d="M1542.51 1035.92L1507.64 999.622L1507.07 975.431C1566.36 973.688 1623.86 958.798 1675.47 931.828C1727.08 904.858 1771.51 866.474 1805.59 819.422C1906.24 681.21 1900.8 481.491 1792.07 338.583C1754.06 288.131 1705.47 246.486 1650 216.834C1594.54 187.181 1533.68 170.307 1472.07 167.504C1410.47 164.7 1349.75 176.041 1294.58 200.658C1239.4 225.275 1191.22 262.516 1153.73 309.532C1046.46 442.61 1043.13 641.929 1145.3 789.372C1179.89 839.549 1224.75 881.997 1276.67 913.678C1328.59 945.36 1386.27 965.492 1445.61 972.634L1445.3 996.784L1410.8 1029.92L1412.78 1403.47C1412.97 1439.51 1442.54 1470.29 1478.54 1471.93C1514.54 1473.57 1543.79 1445.46 1543.6 1409.43L1542.51 1035.92ZM1277.7 760.248C1167.8 645.845 1166.87 469.179 1275.6 364.726C1384.34 260.273 1560.83 268.306 1670.72 382.708C1780.62 497.111 1781.55 673.778 1672.82 778.231C1564.08 882.683 1387.59 874.651 1277.7 760.248Z" fill="black"/>
<rect x="151" y="522" width="865" height="126" rx="63" fill="white"/>
<rect x="151" y="856" width="865" height="126" rx="63" fill="white"/>
<rect x="151" y="1189" width="865" height="126" rx="63" fill="white"/>
</svg>
