<svg width="61" height="20" viewBox="0 0 61 20" fill="none" xmlns="http://www.w3.org/2000/svg">
<path d="M17.4296 9.554C17.1176 9.554 16.8536 9.452 16.6376 9.248C16.4336 9.044 16.3316 8.786 16.3316 8.474C16.3316 8.162 16.4336 7.91 16.6376 7.718C16.8536 7.514 17.1176 7.412 17.4296 7.412H20.5616C20.8736 7.412 21.1316 7.52 21.3356 7.736C21.5516 7.94 21.6596 8.198 21.6596 8.51C21.6596 8.81 21.5516 9.062 21.3356 9.266C21.1316 9.458 20.8736 9.554 20.5616 9.554H17.4296Z" fill="black"/>
<path d="M5.48078 12.54C5.20078 12.54 4.97078 12.44 4.79078 12.24C4.63078 12.04 4.56078 11.79 4.58078 11.49L4.85078 9.12C4.87078 9.06 4.86078 9.02 4.82078 9C4.78078 8.98 4.73078 8.99 4.67078 9.03L2.72078 10.44C2.48078 10.62 2.23078 10.69 1.97078 10.65C1.71078 10.59 1.50078 10.43 1.34078 10.17C1.16078 9.85 1.12078 9.57 1.22078 9.33C1.34078 9.09 1.53078 8.92 1.79078 8.82L3.98078 7.83C4.04078 7.81 4.07078 7.78 4.07078 7.74C4.07078 7.7 4.04078 7.67 3.98078 7.65L1.79078 6.66C1.51078 6.54 1.33078 6.35 1.25078 6.09C1.17078 5.83 1.20078 5.57 1.34078 5.31C1.50078 5.05 1.71078 4.9 1.97078 4.86C2.23078 4.8 2.48078 4.85 2.72078 5.01L4.67078 6.45C4.73078 6.49 4.78078 6.5 4.82078 6.48C4.86078 6.46 4.87078 6.42 4.85078 6.36L4.58078 3.99C4.56078 3.69 4.64078 3.44 4.82078 3.24C5.00078 3.04 5.24078 2.94 5.54078 2.94C5.82078 2.94 6.05078 3.04 6.23078 3.24C6.41078 3.44 6.48078 3.69 6.44078 3.99L6.17078 6.36C6.15078 6.42 6.16078 6.46 6.20078 6.48C6.24078 6.5 6.29078 6.49 6.35078 6.45L8.30078 5.04C8.54078 4.86 8.79078 4.8 9.05078 4.86C9.33078 4.9 9.54078 5.05 9.68078 5.31C9.86078 5.63 9.89078 5.91 9.77078 6.15C9.67078 6.39 9.49078 6.56 9.23078 6.66L7.04078 7.65C6.98078 7.67 6.95078 7.7 6.95078 7.74C6.95078 7.78 6.98078 7.81 7.04078 7.83L9.23078 8.82C9.51078 8.94 9.69078 9.13 9.77078 9.39C9.87078 9.65 9.84078 9.91 9.68078 10.17C9.54078 10.43 9.33078 10.59 9.05078 10.65C8.79078 10.69 8.54078 10.63 8.30078 10.47L6.35078 9.03C6.29078 8.99 6.24078 8.98 6.20078 9C6.16078 9.02 6.15078 9.06 6.17078 9.12L6.44078 11.49C6.48078 11.79 6.40078 12.04 6.20078 12.24C6.02078 12.44 5.78078 12.54 5.48078 12.54Z" fill="black"/>
<path d="M31.4808 12.54C31.2008 12.54 30.9708 12.44 30.7908 12.24C30.6308 12.04 30.5608 11.79 30.5808 11.49L30.8508 9.12C30.8708 9.06 30.8608 9.02 30.8208 9C30.7808 8.98 30.7308 8.99 30.6708 9.03L28.7208 10.44C28.4808 10.62 28.2308 10.69 27.9708 10.65C27.7108 10.59 27.5008 10.43 27.3408 10.17C27.1608 9.85 27.1208 9.57 27.2208 9.33C27.3408 9.09 27.5308 8.92 27.7908 8.82L29.9808 7.83C30.0408 7.81 30.0708 7.78 30.0708 7.74C30.0708 7.7 30.0408 7.67 29.9808 7.65L27.7908 6.66C27.5108 6.54 27.3308 6.35 27.2508 6.09C27.1708 5.83 27.2008 5.57 27.3408 5.31C27.5008 5.05 27.7108 4.9 27.9708 4.86C28.2308 4.8 28.4808 4.85 28.7208 5.01L30.6708 6.45C30.7308 6.49 30.7808 6.5 30.8208 6.48C30.8608 6.46 30.8708 6.42 30.8508 6.36L30.5808 3.99C30.5608 3.69 30.6408 3.44 30.8208 3.24C31.0008 3.04 31.2408 2.94 31.5408 2.94C31.8208 2.94 32.0508 3.04 32.2308 3.24C32.4108 3.44 32.4808 3.69 32.4408 3.99L32.1708 6.36C32.1508 6.42 32.1608 6.46 32.2008 6.48C32.2408 6.5 32.2908 6.49 32.3508 6.45L34.3008 5.04C34.5408 4.86 34.7908 4.8 35.0508 4.86C35.3308 4.9 35.5408 5.05 35.6808 5.31C35.8608 5.63 35.8908 5.91 35.7708 6.15C35.6708 6.39 35.4908 6.56 35.2308 6.66L33.0408 7.65C32.9808 7.67 32.9508 7.7 32.9508 7.74C32.9508 7.78 32.9808 7.81 33.0408 7.83L35.2308 8.82C35.5108 8.94 35.6908 9.13 35.7708 9.39C35.8708 9.65 35.8408 9.91 35.6808 10.17C35.5408 10.43 35.3308 10.59 35.0508 10.65C34.7908 10.69 34.5408 10.63 34.3008 10.47L32.3508 9.03C32.2908 8.99 32.2408 8.98 32.2008 9C32.1608 9.02 32.1508 9.06 32.1708 9.12L32.4408 11.49C32.4808 11.79 32.4008 12.04 32.2008 12.24C32.0208 12.44 31.7808 12.54 31.4808 12.54Z" fill="black"/>
<path d="M43.4808 12.54C43.2008 12.54 42.9708 12.44 42.7908 12.24C42.6308 12.04 42.5608 11.79 42.5808 11.49L42.8508 9.12C42.8708 9.06 42.8608 9.02 42.8208 9C42.7808 8.98 42.7308 8.99 42.6708 9.03L40.7208 10.44C40.4808 10.62 40.2308 10.69 39.9708 10.65C39.7108 10.59 39.5008 10.43 39.3408 10.17C39.1608 9.85 39.1208 9.57 39.2208 9.33C39.3408 9.09 39.5308 8.92 39.7908 8.82L41.9808 7.83C42.0408 7.81 42.0708 7.78 42.0708 7.74C42.0708 7.7 42.0408 7.67 41.9808 7.65L39.7908 6.66C39.5108 6.54 39.3308 6.35 39.2508 6.09C39.1708 5.83 39.2008 5.57 39.3408 5.31C39.5008 5.05 39.7108 4.9 39.9708 4.86C40.2308 4.8 40.4808 4.85 40.7208 5.01L42.6708 6.45C42.7308 6.49 42.7808 6.5 42.8208 6.48C42.8608 6.46 42.8708 6.42 42.8508 6.36L42.5808 3.99C42.5608 3.69 42.6408 3.44 42.8208 3.24C43.0008 3.04 43.2408 2.94 43.5408 2.94C43.8208 2.94 44.0508 3.04 44.2308 3.24C44.4108 3.44 44.4808 3.69 44.4408 3.99L44.1708 6.36C44.1508 6.42 44.1608 6.46 44.2008 6.48C44.2408 6.5 44.2908 6.49 44.3508 6.45L46.3008 5.04C46.5408 4.86 46.7908 4.8 47.0508 4.86C47.3308 4.9 47.5408 5.05 47.6808 5.31C47.8608 5.63 47.8908 5.91 47.7708 6.15C47.6708 6.39 47.4908 6.56 47.2308 6.66L45.0408 7.65C44.9808 7.67 44.9508 7.7 44.9508 7.74C44.9508 7.78 44.9808 7.81 45.0408 7.83L47.2308 8.82C47.5108 8.94 47.6908 9.13 47.7708 9.39C47.8708 9.65 47.8408 9.91 47.6808 10.17C47.5408 10.43 47.3308 10.59 47.0508 10.65C46.7908 10.69 46.5408 10.63 46.3008 10.47L44.3508 9.03C44.2908 8.99 44.2408 8.98 44.2008 9C44.1608 9.02 44.1508 9.06 44.1708 9.12L44.4408 11.49C44.4808 11.79 44.4008 12.04 44.2008 12.24C44.0208 12.44 43.7808 12.54 43.4808 12.54Z" fill="black"/>
<path d="M55.4808 12.54C55.2008 12.54 54.9708 12.44 54.7908 12.24C54.6308 12.04 54.5608 11.79 54.5808 11.49L54.8508 9.12C54.8708 9.06 54.8608 9.02 54.8208 9C54.7808 8.98 54.7308 8.99 54.6708 9.03L52.7208 10.44C52.4808 10.62 52.2308 10.69 51.9708 10.65C51.7108 10.59 51.5008 10.43 51.3408 10.17C51.1608 9.85 51.1208 9.57 51.2208 9.33C51.3408 9.09 51.5308 8.92 51.7908 8.82L53.9808 7.83C54.0408 7.81 54.0708 7.78 54.0708 7.74C54.0708 7.7 54.0408 7.67 53.9808 7.65L51.7908 6.66C51.5108 6.54 51.3308 6.35 51.2508 6.09C51.1708 5.83 51.2008 5.57 51.3408 5.31C51.5008 5.05 51.7108 4.9 51.9708 4.86C52.2308 4.8 52.4808 4.85 52.7208 5.01L54.6708 6.45C54.7308 6.49 54.7808 6.5 54.8208 6.48C54.8608 6.46 54.8708 6.42 54.8508 6.36L54.5808 3.99C54.5608 3.69 54.6408 3.44 54.8208 3.24C55.0008 3.04 55.2408 2.94 55.5408 2.94C55.8208 2.94 56.0508 3.04 56.2308 3.24C56.4108 3.44 56.4808 3.69 56.4408 3.99L56.1708 6.36C56.1508 6.42 56.1608 6.46 56.2008 6.48C56.2408 6.5 56.2908 6.49 56.3508 6.45L58.3008 5.04C58.5408 4.86 58.7908 4.8 59.0508 4.86C59.3308 4.9 59.5408 5.05 59.6808 5.31C59.8608 5.63 59.8908 5.91 59.7708 6.15C59.6708 6.39 59.4908 6.56 59.2308 6.66L57.0408 7.65C56.9808 7.67 56.9508 7.7 56.9508 7.74C56.9508 7.78 56.9808 7.81 57.0408 7.83L59.2308 8.82C59.5108 8.94 59.6908 9.13 59.7708 9.39C59.8708 9.65 59.8408 9.91 59.6808 10.17C59.5408 10.43 59.3308 10.59 59.0508 10.65C58.7908 10.69 58.5408 10.63 58.3008 10.47L56.3508 9.03C56.2908 8.99 56.2408 8.98 56.2008 9C56.1608 9.02 56.1508 9.06 56.1708 9.12L56.4408 11.49C56.4808 11.79 56.4008 12.04 56.2008 12.24C56.0208 12.44 55.7808 12.54 55.4808 12.54Z" fill="black"/>
</svg>
