<svg width="977" height="911" viewBox="0 0 977 911" fill="none" xmlns="http://www.w3.org/2000/svg">
<path d="M499.342 140.88C496.315 137.984 492.287 136.367 488.097 136.367C483.908 136.367 479.879 137.984 476.852 140.88L102.488 498.508C100.898 500.029 99.6333 501.857 98.77 503.88C97.9066 505.904 97.4628 508.082 97.4653 510.282L97.4043 845.929C97.4043 863.187 104.26 879.738 116.463 891.941C128.667 904.144 145.218 911 162.476 911H357.893C366.522 911 374.798 907.572 380.899 901.471C387.001 895.369 390.429 887.093 390.429 878.464V601.911C390.429 597.596 392.143 593.459 395.194 590.408C398.245 587.357 402.382 585.643 406.697 585.643H569.375C573.69 585.643 577.828 587.357 580.879 590.408C583.929 593.459 585.643 597.596 585.643 601.911V878.464C585.643 887.093 589.071 895.369 595.173 901.471C601.274 907.572 609.55 911 618.179 911H813.515C830.773 911 847.324 904.144 859.528 891.941C871.731 879.738 878.587 863.187 878.587 845.929V510.282C878.589 508.082 878.145 505.904 877.282 503.88C876.419 501.857 875.154 500.029 873.564 498.508L499.342 140.88Z" fill="black"/>
<path d="M965.721 431.403L813.617 285.887V65.0714C813.617 56.4424 810.189 48.1668 804.088 42.0652C797.986 35.9636 789.71 32.5357 781.081 32.5357H683.474C674.845 32.5357 666.57 35.9636 660.468 42.0652C654.366 48.1668 650.939 56.4424 650.939 65.0714V130.143L533.159 17.5286C522.138 6.38513 505.748 0 488.036 0C470.386 0 454.037 6.38513 443.015 17.5489L10.4935 431.362C-2.15472 443.563 -3.74084 463.634 7.76867 476.851C10.6589 480.188 14.1977 482.901 18.1699 484.826C22.1421 486.751 26.4644 487.848 30.8739 488.05C35.2834 488.252 39.6878 487.554 43.8191 485.999C47.9504 484.445 51.7221 482.066 54.9048 479.007L476.852 75.8082C479.88 72.9121 483.908 71.2958 488.097 71.2958C492.287 71.2958 496.315 72.9121 499.342 75.8082L921.331 479.007C927.547 484.968 935.873 488.221 944.484 488.054C953.095 487.886 961.288 484.311 967.267 478.112C979.753 465.179 978.715 443.828 965.721 431.403Z" fill="black"/>
</svg>
