<svg width="14" height="19" viewBox="0 0 14 19" fill="none" xmlns="http://www.w3.org/2000/svg">
<path d="M1.75 18.375C1.26875 18.375 0.856626 18.2035 0.513626 17.8605C0.170626 17.5175 -0.000581848 17.1057 1.48557e-06 16.625V7.875C1.48557e-06 7.39375 0.171501 6.98162 0.514501 6.63862C0.857501 6.29562 1.26933 6.12442 1.75 6.125H2.625V4.375C2.625 3.16458 3.05171 2.13267 3.90513 1.27925C4.75854 0.425834 5.79017 -0.000582736 7 5.97678e-07C8.21042 5.97678e-07 9.24233 0.426709 10.0957 1.28013C10.9492 2.13354 11.3756 3.16517 11.375 4.375V6.125H12.25C12.7312 6.125 13.1434 6.2965 13.4864 6.6395C13.8294 6.9825 14.0006 7.39433 14 7.875V16.625C14 17.1062 13.8285 17.5184 13.4855 17.8614C13.1425 18.2044 12.7307 18.3756 12.25 18.375H1.75ZM7 14C7.48125 14 7.89337 13.8285 8.23637 13.4855C8.57937 13.1425 8.75058 12.7307 8.75 12.25C8.75 11.7687 8.5785 11.3566 8.2355 11.0136C7.8925 10.6706 7.48067 10.4994 7 10.5C6.51875 10.5 6.10663 10.6715 5.76363 11.0145C5.42063 11.3575 5.24942 11.7693 5.25 12.25C5.25 12.7312 5.4215 13.1434 5.7645 13.4864C6.1075 13.8294 6.51933 14.0006 7 14ZM4.375 6.125H9.625V4.375C9.625 3.64583 9.36979 3.02604 8.85938 2.51562C8.34896 2.00521 7.72917 1.75 7 1.75C6.27083 1.75 5.65104 2.00521 5.14063 2.51562C4.63021 3.02604 4.375 3.64583 4.375 4.375V6.125Z" fill="white"/>
</svg>
