<svg width="974" height="974" viewBox="0 0 974 974" fill="none" xmlns="http://www.w3.org/2000/svg">
<path d="M952.285 0H750.431C731.092 0 721.406 23.3757 735.085 37.0549L797.799 99.7689L431.796 465.772L303.63 337.606L269.281 303.257C257.658 291.634 238.817 291.634 227.194 303.257L8.7172 521.722C-2.90573 533.345 -2.90573 552.187 8.7172 563.81L43.0665 598.159C54.6895 609.782 73.5307 609.782 85.1537 598.159L248.232 435.081L410.498 597.347C422.121 608.97 440.962 608.97 452.585 597.347L470.052 579.88C470.951 579.166 471.892 578.528 472.725 577.694L874.225 176.195L936.939 238.909C950.618 252.588 973.994 242.902 973.994 223.563V21.7091C973.994 9.71824 964.276 0 952.285 0Z" fill="black"/>
<path d="M710.178 409.083V944.235C710.178 960.674 723.5 973.996 739.938 973.996H834.978C851.417 973.996 864.739 960.674 864.739 944.235V254.521L710.178 409.083Z" fill="black"/>
<path d="M509.91 609.421V944.235C509.91 960.674 523.232 973.996 539.671 973.996H634.711C651.149 973.996 664.471 960.674 664.471 944.235V454.86L509.91 609.421Z" fill="black"/>
<path d="M431.542 654.76C410.58 654.76 390.884 646.6 376.058 631.774L309.545 565.272V944.218C309.545 960.657 322.867 973.979 339.306 973.979H434.345C450.784 973.979 464.106 960.657 464.106 944.218V647.628C454.009 652.249 442.981 654.76 431.542 654.76Z" fill="black"/>
<path d="M248.195 503.964L119.564 632.595C116.339 635.82 112.843 638.677 109.186 641.253V944.239C109.186 960.678 122.508 974 138.946 974H233.986C250.425 974 263.747 960.678 263.747 944.239V519.515L248.195 503.964Z" fill="black"/>
</svg>
