<svg width="61" height="20" viewBox="0 0 61 20" fill="none" xmlns="http://www.w3.org/2000/svg">
<path d="M43.5704 9.554C43.8824 9.554 44.1464 9.452 44.3624 9.248C44.5664 9.044 44.6684 8.786 44.6684 8.474C44.6684 8.162 44.5664 7.91 44.3624 7.718C44.1464 7.514 43.8824 7.412 43.5704 7.412H40.4384C40.1264 7.412 39.8684 7.52 39.6644 7.736C39.4484 7.94 39.3404 8.198 39.3404 8.51C39.3404 8.81 39.4484 9.062 39.6644 9.266C39.8684 9.458 40.1264 9.554 40.4384 9.554H43.5704Z" fill="black"/>
<path d="M55.5192 12.54C55.7992 12.54 56.0292 12.44 56.2092 12.24C56.3692 12.04 56.4392 11.79 56.4192 11.49L56.1492 9.12C56.1292 9.06 56.1392 9.02 56.1792 9C56.2192 8.98 56.2692 8.99 56.3292 9.03L58.2792 10.44C58.5192 10.62 58.7692 10.69 59.0292 10.65C59.2892 10.59 59.4992 10.43 59.6592 10.17C59.8392 9.85 59.8792 9.57 59.7792 9.33C59.6592 9.09 59.4692 8.92 59.2092 8.82L57.0192 7.83C56.9592 7.81 56.9292 7.78 56.9292 7.74C56.9292 7.7 56.9592 7.67 57.0192 7.65L59.2092 6.66C59.4892 6.54 59.6692 6.35 59.7492 6.09C59.8292 5.83 59.7992 5.57 59.6592 5.31C59.4992 5.05 59.2892 4.9 59.0292 4.86C58.7692 4.8 58.5192 4.85 58.2792 5.01L56.3292 6.45C56.2692 6.49 56.2192 6.5 56.1792 6.48C56.1392 6.46 56.1292 6.42 56.1492 6.36L56.4192 3.99C56.4392 3.69 56.3592 3.44 56.1792 3.24C55.9992 3.04 55.7592 2.94 55.4592 2.94C55.1792 2.94 54.9492 3.04 54.7692 3.24C54.5892 3.44 54.5192 3.69 54.5592 3.99L54.8292 6.36C54.8492 6.42 54.8392 6.46 54.7992 6.48C54.7592 6.5 54.7092 6.49 54.6492 6.45L52.6992 5.04C52.4592 4.86 52.2092 4.8 51.9492 4.86C51.6692 4.9 51.4592 5.05 51.3192 5.31C51.1392 5.63 51.1092 5.91 51.2292 6.15C51.3292 6.39 51.5092 6.56 51.7692 6.66L53.9592 7.65C54.0192 7.67 54.0492 7.7 54.0492 7.74C54.0492 7.78 54.0192 7.81 53.9592 7.83L51.7692 8.82C51.4892 8.94 51.3092 9.13 51.2292 9.39C51.1292 9.65 51.1592 9.91 51.3192 10.17C51.4592 10.43 51.6692 10.59 51.9492 10.65C52.2092 10.69 52.4592 10.63 52.6992 10.47L54.6492 9.03C54.7092 8.99 54.7592 8.98 54.7992 9C54.8392 9.02 54.8492 9.06 54.8292 9.12L54.5592 11.49C54.5192 11.79 54.5992 12.04 54.7992 12.24C54.9792 12.44 55.2192 12.54 55.5192 12.54Z" fill="black"/>
<path d="M29.5192 12.54C29.7992 12.54 30.0292 12.44 30.2092 12.24C30.3692 12.04 30.4392 11.79 30.4192 11.49L30.1492 9.12C30.1292 9.06 30.1392 9.02 30.1792 9C30.2192 8.98 30.2692 8.99 30.3292 9.03L32.2792 10.44C32.5192 10.62 32.7692 10.69 33.0292 10.65C33.2892 10.59 33.4992 10.43 33.6592 10.17C33.8392 9.85 33.8792 9.57 33.7792 9.33C33.6592 9.09 33.4692 8.92 33.2092 8.82L31.0192 7.83C30.9592 7.81 30.9292 7.78 30.9292 7.74C30.9292 7.7 30.9592 7.67 31.0192 7.65L33.2092 6.66C33.4892 6.54 33.6692 6.35 33.7492 6.09C33.8292 5.83 33.7992 5.57 33.6592 5.31C33.4992 5.05 33.2892 4.9 33.0292 4.86C32.7692 4.8 32.5192 4.85 32.2792 5.01L30.3292 6.45C30.2692 6.49 30.2192 6.5 30.1792 6.48C30.1392 6.46 30.1292 6.42 30.1492 6.36L30.4192 3.99C30.4392 3.69 30.3592 3.44 30.1792 3.24C29.9992 3.04 29.7592 2.94 29.4592 2.94C29.1792 2.94 28.9492 3.04 28.7692 3.24C28.5892 3.44 28.5192 3.69 28.5592 3.99L28.8292 6.36C28.8492 6.42 28.8392 6.46 28.7992 6.48C28.7592 6.5 28.7092 6.49 28.6492 6.45L26.6992 5.04C26.4592 4.86 26.2092 4.8 25.9492 4.86C25.6692 4.9 25.4592 5.05 25.3192 5.31C25.1392 5.63 25.1092 5.91 25.2292 6.15C25.3292 6.39 25.5092 6.56 25.7692 6.66L27.9592 7.65C28.0192 7.67 28.0492 7.7 28.0492 7.74C28.0492 7.78 28.0192 7.81 27.9592 7.83L25.7692 8.82C25.4892 8.94 25.3092 9.13 25.2292 9.39C25.1292 9.65 25.1592 9.91 25.3192 10.17C25.4592 10.43 25.6692 10.59 25.9492 10.65C26.2092 10.69 26.4592 10.63 26.6992 10.47L28.6492 9.03C28.7092 8.99 28.7592 8.98 28.7992 9C28.8392 9.02 28.8492 9.06 28.8292 9.12L28.5592 11.49C28.5192 11.79 28.5992 12.04 28.7992 12.24C28.9792 12.44 29.2192 12.54 29.5192 12.54Z" fill="black"/>
<path d="M17.5192 12.54C17.7992 12.54 18.0292 12.44 18.2092 12.24C18.3692 12.04 18.4392 11.79 18.4192 11.49L18.1492 9.12C18.1292 9.06 18.1392 9.02 18.1792 9C18.2192 8.98 18.2692 8.99 18.3292 9.03L20.2792 10.44C20.5192 10.62 20.7692 10.69 21.0292 10.65C21.2892 10.59 21.4992 10.43 21.6592 10.17C21.8392 9.85 21.8792 9.57 21.7792 9.33C21.6592 9.09 21.4692 8.92 21.2092 8.82L19.0192 7.83C18.9592 7.81 18.9292 7.78 18.9292 7.74C18.9292 7.7 18.9592 7.67 19.0192 7.65L21.2092 6.66C21.4892 6.54 21.6692 6.35 21.7492 6.09C21.8292 5.83 21.7992 5.57 21.6592 5.31C21.4992 5.05 21.2892 4.9 21.0292 4.86C20.7692 4.8 20.5192 4.85 20.2792 5.01L18.3292 6.45C18.2692 6.49 18.2192 6.5 18.1792 6.48C18.1392 6.46 18.1292 6.42 18.1492 6.36L18.4192 3.99C18.4392 3.69 18.3592 3.44 18.1792 3.24C17.9992 3.04 17.7592 2.94 17.4592 2.94C17.1792 2.94 16.9492 3.04 16.7692 3.24C16.5892 3.44 16.5192 3.69 16.5592 3.99L16.8292 6.36C16.8492 6.42 16.8392 6.46 16.7992 6.48C16.7592 6.5 16.7092 6.49 16.6492 6.45L14.6992 5.04C14.4592 4.86 14.2092 4.8 13.9492 4.86C13.6692 4.9 13.4592 5.05 13.3192 5.31C13.1392 5.63 13.1092 5.91 13.2292 6.15C13.3292 6.39 13.5092 6.56 13.7692 6.66L15.9592 7.65C16.0192 7.67 16.0492 7.7 16.0492 7.74C16.0492 7.78 16.0192 7.81 15.9592 7.83L13.7692 8.82C13.4892 8.94 13.3092 9.13 13.2292 9.39C13.1292 9.65 13.1592 9.91 13.3192 10.17C13.4592 10.43 13.6692 10.59 13.9492 10.65C14.2092 10.69 14.4592 10.63 14.6992 10.47L16.6492 9.03C16.7092 8.99 16.7592 8.98 16.7992 9C16.8392 9.02 16.8492 9.06 16.8292 9.12L16.5592 11.49C16.5192 11.79 16.5992 12.04 16.7992 12.24C16.9792 12.44 17.2192 12.54 17.5192 12.54Z" fill="black"/>
<path d="M5.51922 12.54C5.79922 12.54 6.02922 12.44 6.20922 12.24C6.36922 12.04 6.43922 11.79 6.41922 11.49L6.14922 9.12C6.12922 9.06 6.13922 9.02 6.17922 9C6.21922 8.98 6.26922 8.99 6.32922 9.03L8.27922 10.44C8.51922 10.62 8.76922 10.69 9.02922 10.65C9.28922 10.59 9.49922 10.43 9.65922 10.17C9.83922 9.85 9.87922 9.57 9.77922 9.33C9.65922 9.09 9.46922 8.92 9.20922 8.82L7.01922 7.83C6.95922 7.81 6.92922 7.78 6.92922 7.74C6.92922 7.7 6.95922 7.67 7.01922 7.65L9.20922 6.66C9.48922 6.54 9.66922 6.35 9.74922 6.09C9.82922 5.83 9.79922 5.57 9.65922 5.31C9.49922 5.05 9.28922 4.9 9.02922 4.86C8.76922 4.8 8.51922 4.85 8.27922 5.01L6.32922 6.45C6.26922 6.49 6.21922 6.5 6.17922 6.48C6.13922 6.46 6.12922 6.42 6.14922 6.36L6.41922 3.99C6.43922 3.69 6.35922 3.44 6.17922 3.24C5.99922 3.04 5.75922 2.94 5.45922 2.94C5.17922 2.94 4.94922 3.04 4.76922 3.24C4.58922 3.44 4.51922 3.69 4.55922 3.99L4.82922 6.36C4.84922 6.42 4.83922 6.46 4.79922 6.48C4.75922 6.5 4.70922 6.49 4.64922 6.45L2.69922 5.04C2.45922 4.86 2.20922 4.8 1.94922 4.86C1.66922 4.9 1.45922 5.05 1.31922 5.31C1.13922 5.63 1.10922 5.91 1.22922 6.15C1.32922 6.39 1.50922 6.56 1.76922 6.66L3.95922 7.65C4.01922 7.67 4.04922 7.7 4.04922 7.74C4.04922 7.78 4.01922 7.81 3.95922 7.83L1.76922 8.82C1.48922 8.94 1.30922 9.13 1.22922 9.39C1.12922 9.65 1.15922 9.91 1.31922 10.17C1.45922 10.43 1.66922 10.59 1.94922 10.65C2.20922 10.69 2.45922 10.63 2.69922 10.47L4.64922 9.03C4.70922 8.99 4.75922 8.98 4.79922 9C4.83922 9.02 4.84922 9.06 4.82922 9.12L4.55922 11.49C4.51922 11.79 4.59922 12.04 4.79922 12.24C4.97922 12.44 5.21922 12.54 5.51922 12.54Z" fill="black"/>
</svg>
