<svg width="16" height="19" viewBox="0 0 16 19" fill="none" xmlns="http://www.w3.org/2000/svg">
<path d="M10.6871 12.5922L10.1504 12.8947C10.1504 12.8947 8.87333 13.6145 6.90923 10.13C4.94514 6.64538 6.22223 5.92554 6.22223 5.92554L6.56024 5.73502C7.39305 5.2656 7.74715 4.23607 7.39113 3.31523L6.66519 1.42858C6.22525 0.287581 4.8999 -0.216607 3.86933 0.364276L2.01815 1.4077C1.50679 1.69594 1.09449 2.13955 0.966767 2.72351C0.638838 4.21697 0.418324 7.5669 3.07968 12.2885C5.90258 17.2967 9.53302 18.4772 11.0746 18.7562C11.5612 18.8435 12.0434 18.7152 12.4685 18.4756L14.1437 17.5314C15.2744 16.894 15.4482 15.3084 14.4902 14.3744L12.9968 12.9204C12.3677 12.3073 11.4301 12.1734 10.6879 12.5917L10.6871 12.5922Z" fill="white"/>
</svg>
