<svg width="63" height="63" viewBox="0 0 63 63" fill="none" xmlns="http://www.w3.org/2000/svg">
<path d="M27.2475 43.3125L42.6037 33.4688C43.3387 32.9963 43.7063 32.34 43.7063 31.5C43.7063 30.66 43.3387 30.0037 42.6037 29.5312L27.2475 19.6875C26.46 19.1625 25.6589 19.1226 24.8441 19.5678C24.0293 20.013 23.6229 20.7092 23.625 21.6563V41.3438C23.625 42.2888 24.0324 42.9849 24.8472 43.4322C25.662 43.8795 26.4621 43.8396 27.2475 43.3125ZM31.5 63C27.1425 63 23.0475 62.1726 19.215 60.5178C15.3825 58.863 12.0488 56.6192 9.21375 53.7863C6.37875 50.9513 4.1349 47.6175 2.4822 43.785C0.8295 39.9525 0.0021 35.8575 0 31.5C0 27.1425 0.8274 23.0475 2.4822 19.215C4.137 15.3825 6.38085 12.0488 9.21375 9.21375C12.0488 6.37875 15.3825 4.1349 19.215 2.4822C23.0475 0.8295 27.1425 0.0021 31.5 0C35.8575 0 39.9525 0.8274 43.785 2.4822C47.6175 4.137 50.9513 6.38085 53.7863 9.21375C56.6213 12.0488 58.8661 15.3825 60.5209 19.215C62.1757 23.0475 63.0021 27.1425 63 31.5C63 35.8575 62.1726 39.9525 60.5178 43.785C58.863 47.6175 56.6192 50.9513 53.7863 53.7863C50.9513 56.6213 47.6175 58.8661 43.785 60.5209C39.9525 62.1757 35.8575 63.0021 31.5 63Z" fill="#2E3F52"/>
</svg>
