<svg width="21" height="20" viewBox="0 0 21 20" fill="none" xmlns="http://www.w3.org/2000/svg">
<path d="M10.5 0C4.97755 0 0.5 4.47755 0.5 10C0.5 15.5224 4.97755 20 10.5 20C16.0224 20 20.5 15.5224 20.5 10C20.5 4.47755 16.0224 0 10.5 0ZM10.3857 4.29796C12.0653 4.29796 13.4347 5.64694 13.4347 7.30204C13.4347 8.95714 12.0673 10.3061 10.3857 10.3061C8.70612 10.3061 7.33673 8.95714 7.33673 7.30204C7.33878 5.64694 8.70612 4.29796 10.3857 4.29796ZM15.4898 15.1633C15.4898 16.2551 13.7061 16.2551 11.6408 16.2551H9.35714C7.20612 16.2551 5.50816 16.2551 5.50816 15.1633V14.9388C5.50816 12.849 7.23469 11.149 9.35714 11.149H11.6429C13.7653 11.149 15.4918 12.849 15.4918 14.9388L15.4898 15.1633Z" fill="#2E3F52"/>
</svg>
