<svg width="20" height="20" viewBox="0 0 20 20" fill="none" xmlns="http://www.w3.org/2000/svg">
<path d="M10 0C4.47755 0 0 4.47755 0 10C0 15.5224 4.47755 20 10 20C15.5224 20 20 15.5224 20 10C20 4.47755 15.5224 0 10 0ZM9.88571 4.29796C11.5653 4.29796 12.9347 5.64694 12.9347 7.30204C12.9347 8.95714 11.5673 10.3061 9.88571 10.3061C8.20612 10.3061 6.83673 8.95714 6.83673 7.30204C6.83878 5.64694 8.20612 4.29796 9.88571 4.29796ZM14.9898 15.1633C14.9898 16.2551 13.2061 16.2551 11.1408 16.2551H8.85714C6.70612 16.2551 5.00816 16.2551 5.00816 15.1633V14.9388C5.00816 12.849 6.73469 11.149 8.85714 11.149H11.1429C13.2653 11.149 14.9918 12.849 14.9918 14.9388L14.9898 15.1633Z" fill="#0AC58C"/>
</svg>
