<svg width="1366" height="1050" viewBox="0 0 1366 1050" fill="none" xmlns="http://www.w3.org/2000/svg">
<path d="M615.336 1011.09H480.867C457.609 1011.09 438.76 1002.87 438.76 992.728V743.01C438.76 732.867 457.609 724.647 480.867 724.647H615.336C638.594 724.647 657.443 732.867 657.443 743.01V992.728C657.443 1002.87 638.594 1011.09 615.336 1011.09Z" fill="black"/>
<path d="M964.921 1014.17H830.453C807.195 1014.17 788.346 999.651 788.346 981.734V458.32C788.346 440.403 807.195 425.883 830.453 425.883H964.921C988.18 425.883 1007.03 440.403 1007.03 458.32V981.734C1007.03 999.651 988.165 1014.17 964.921 1014.17Z" fill="black"/>
<path d="M1313.26 1011.8H1179.74C1156.65 1011.8 1137.93 991.841 1137.93 967.218V44.5768C1137.93 19.9542 1156.65 0 1179.74 0H1313.26C1336.36 0 1355.07 19.9542 1355.07 44.5768V967.218C1355.07 991.841 1336.36 1011.8 1313.26 1011.8Z" fill="black"/>
<line x1="344.818" y1="1011.09" x2="1365.85" y2="1011.09" stroke="black" stroke-width="77.0012"/>
<path d="M172.368 794.584L289.936 626.744C341.725 653.044 400.664 661.785 457.857 651.646C603.973 625.908 701.911 486.092 676.173 339.975C650.436 193.859 510.619 95.9217 364.503 121.659C218.386 147.397 120.449 287.213 146.187 433.33C156.2 490.545 184.553 542.95 226.967 582.636L109.399 750.476C104.214 758.837 102.427 768.866 104.404 778.504C106.381 788.141 111.973 796.656 120.031 802.301C128.089 807.945 138.002 810.29 147.735 808.856C157.468 807.421 166.282 802.314 172.368 794.584ZM377.839 197.372C415.275 190.778 453.826 195.433 488.617 210.748C523.408 226.064 552.875 251.352 573.294 283.415C593.712 315.478 604.164 352.876 603.328 390.879C602.492 428.883 590.406 465.785 568.597 496.919C546.789 528.053 516.237 552.021 480.807 565.792C445.377 579.563 406.658 582.518 369.548 574.284C332.438 566.05 298.603 546.997 272.322 519.533C246.04 492.07 228.493 457.43 221.899 419.993C213.12 369.801 224.607 318.175 253.841 276.441C283.075 234.707 327.668 206.271 377.839 197.372Z" fill="black"/>
<circle cx="410.268" cy="389.692" r="63.911" fill="black"/>
</svg>
