<svg width="8" height="11" viewBox="0 0 8 11" fill="none" xmlns="http://www.w3.org/2000/svg">
<path d="M7.45444 2.30766C7.59851 2.30766 7.71531 2.19214 7.71531 2.04965V1.18964C7.71531 1.04716 7.59851 0.931641 7.45444 0.931641H1.01966C0.875593 0.931641 0.758789 1.04716 0.758789 1.18964V2.15174C0.758789 2.29422 0.875593 2.40974 1.01966 2.40974H2.87357C3.46722 2.40974 3.92272 2.62384 4.19901 2.99566H1.01966C0.875593 2.99566 0.758789 3.11118 0.758789 3.25367V4.11368C0.758789 4.25616 0.875593 4.37168 1.01966 4.37168H4.4709C4.33575 5.14754 3.75435 5.63228 2.84575 5.63228H1.01966C0.875593 5.63228 0.758789 5.7478 0.758789 5.89028V7.03006C0.758789 7.10206 0.789224 7.1708 0.842724 7.21964L4.43081 10.4953C4.479 10.5393 4.54217 10.5637 4.60775 10.5637H6.40257C6.64005 10.5637 6.75401 10.2755 6.57951 10.1162L3.29946 7.12169C4.96248 7.07138 6.15042 5.97368 6.30638 4.37168H7.45444C7.59851 4.37168 7.71531 4.25616 7.71531 4.11368V3.25367C7.71531 3.11118 7.59851 2.99566 7.45444 2.99566H6.17857C6.10279 2.74753 5.99857 2.51737 5.86875 2.30766H7.45444Z" fill="#2E3F52"/>
</svg>
