<svg width="1048" height="898" viewBox="0 0 1048 898" fill="none" xmlns="http://www.w3.org/2000/svg">
<path d="M550.658 872.457H463.342C448.239 872.457 436 862.585 436 850.404V550.51C436 538.329 448.239 528.457 463.342 528.457H550.658C565.761 528.457 578 538.329 578 550.51V850.404C578 862.585 565.761 872.457 550.658 872.457Z" fill="black"/>
<path d="M777.658 874.457H690.342C675.239 874.457 663 862.042 663 846.722V399.192C663 383.872 675.239 371.457 690.342 371.457H777.658C792.761 371.457 805 383.872 805 399.192V846.722C805 862.042 792.751 874.457 777.658 874.457Z" fill="black"/>
<path d="M323.85 872.457H237.15C222.153 872.457 210 862.584 210 850.401V694.513C210 682.33 222.153 672.457 237.15 672.457H323.85C338.847 672.457 351 682.33 351 694.513V850.401C351 862.584 338.837 872.457 323.85 872.457Z" fill="black"/>
<path d="M1003.85 872.457H917.15C902.153 872.457 890 859.5 890 843.512V244.403C890 228.414 902.153 215.457 917.15 215.457H1003.85C1018.85 215.457 1031 228.414 1031 244.403V843.512C1031 859.5 1018.85 872.457 1003.85 872.457Z" fill="black"/>
<path d="M286.527 454.103L308.532 498.693C309.387 500.425 311.039 501.624 312.95 501.902L362.159 509.053C366.97 509.752 368.893 515.665 365.41 519.06L329.803 553.767C328.42 555.115 327.788 557.057 328.115 558.96L336.52 607.968C337.343 612.761 332.311 616.415 328.008 614.153L283.997 591.015C282.288 590.116 280.245 590.116 278.536 591.015L234.523 614.153C230.219 616.415 225.188 612.761 226.011 607.968L234.416 558.96C234.742 557.057 234.11 555.115 232.728 553.767L197.122 519.058C193.639 515.663 195.562 509.75 200.374 509.051L249.582 501.901C251.493 501.624 253.145 500.423 254 498.691L276.006 454.103C278.158 449.742 284.375 449.742 286.527 454.103Z" fill="black"/>
<path d="M513.277 297.826L535.282 342.415C536.137 344.147 537.789 345.346 539.7 345.625L588.909 352.776C593.72 353.474 595.643 359.388 592.16 362.783L556.553 397.489C555.17 398.837 554.538 400.779 554.865 402.683L563.27 451.691C564.093 456.483 559.061 460.138 554.758 457.875L510.747 434.737C509.038 433.838 506.995 433.838 505.286 434.737L461.273 457.875C456.969 460.138 451.938 456.483 452.761 451.691L461.166 402.683C461.492 400.779 460.86 398.837 459.478 397.489L423.872 362.781C420.389 359.386 422.312 353.473 427.124 352.774L476.332 345.623C478.243 345.346 479.895 344.145 480.75 342.413L502.756 297.826C504.908 293.465 511.125 293.465 513.277 297.826Z" fill="black"/>
<path d="M740.027 145.548L762.032 190.138C762.887 191.87 764.539 193.069 766.45 193.348L815.659 200.498C820.47 201.197 822.393 207.11 818.91 210.505L783.303 245.212C781.92 246.56 781.288 248.502 781.615 250.405L790.02 299.413C790.843 304.206 785.811 307.86 781.508 305.598L737.497 282.46C735.788 281.561 733.745 281.561 732.036 282.46L688.023 305.598C683.719 307.86 678.688 304.206 679.511 299.413L687.916 250.405C688.242 248.502 687.61 246.56 686.228 245.212L650.622 210.503C647.139 207.108 649.062 201.195 653.874 200.496L703.082 193.346C704.993 193.069 706.645 191.868 707.5 190.136L729.506 145.548C731.658 141.187 737.875 141.187 740.027 145.548Z" fill="black"/>
<path d="M966.777 3.27076L988.782 47.8604C989.637 49.5922 991.289 50.7913 993.2 51.07L1042.41 58.2207C1047.22 58.9195 1049.14 64.8328 1045.66 68.2277L1010.05 102.934C1008.67 104.282 1008.04 106.224 1008.36 108.128L1016.77 157.136C1017.59 161.928 1012.56 165.583 1008.26 163.32L964.247 140.182C962.538 139.283 960.495 139.283 958.786 140.182L914.773 163.32C910.469 165.583 905.438 161.928 906.261 157.136L914.666 108.128C914.992 106.224 914.36 104.282 912.978 102.934L877.372 68.2258C873.889 64.8309 875.812 58.9176 880.624 58.2187L929.832 51.0681C931.743 50.7913 933.395 49.5903 934.25 47.8585L956.256 3.27076C958.408 -1.09025 964.625 -1.09025 966.777 3.27076Z" fill="black"/>
<path d="M91.1828 686.728L113.188 731.317C114.044 733.049 115.695 734.248 117.607 734.527L166.815 741.678C171.627 742.377 173.549 748.29 170.067 751.685L134.459 786.391C133.076 787.739 132.444 789.681 132.771 791.585L141.176 840.593C141.999 845.385 136.968 849.04 132.664 846.777L88.6529 823.64C86.944 822.74 84.901 822.74 83.1921 823.64L39.1791 846.777C34.8753 849.04 29.8441 845.385 30.6671 840.593L39.0721 791.585C39.3987 789.681 38.7667 787.739 37.3843 786.391L1.77824 751.683C-1.70446 748.288 0.218282 742.375 5.02991 741.676L54.2383 734.525C56.1496 734.248 57.8012 733.047 58.6566 731.316L80.6621 686.728C82.814 682.367 89.0309 682.367 91.1828 686.728Z" fill="black"/>
<line x1="22.0247" y1="871.457" x2="1038.02" y2="872.459" stroke="black" stroke-width="50"/>
</svg>
