<svg width="1060" height="1060" viewBox="0 0 1060 1060" fill="none" xmlns="http://www.w3.org/2000/svg">
<path d="M960.215 265.405H157.608C148.022 267.261 138.144 266.973 128.682 264.563C119.22 262.153 110.408 257.681 102.877 251.466C95.3459 245.252 89.2824 237.449 85.1206 228.616C80.9588 219.783 78.8018 210.14 78.8039 200.376V199.117L927.104 166.073V87.2689C928.487 75.5113 927.18 63.5931 923.282 52.4144C919.385 41.2358 912.998 31.0889 904.604 22.74C896.211 14.3912 886.03 8.05857 874.831 4.22049C863.632 0.382412 851.707 -0.860822 839.956 0.584675L86.7505 123.029C61.33 132.413 39.3914 149.353 23.8832 171.574C8.37496 193.794 0.0405039 220.23 0 247.327L0 960.667C0 987.012 10.4654 1012.28 29.0938 1030.91C47.7223 1049.53 72.988 1060 99.3326 1060H960.215C986.56 1060 1011.83 1049.53 1030.45 1030.91C1049.08 1012.28 1059.55 987.012 1059.55 960.667V364.01L1059.61 361.294C1059.61 335.828 1049.5 311.405 1031.49 293.397C1013.48 275.389 989.059 265.273 963.592 265.273L960.083 265.339L960.215 265.405ZM860.883 728.958C834.529 728.949 809.259 718.472 790.63 699.831C772.002 681.19 761.541 655.912 761.55 629.559C761.559 603.205 772.036 577.935 790.677 559.306C809.318 540.678 834.595 530.217 860.949 530.226C873.998 530.231 886.918 532.805 898.972 537.803C911.026 542.8 921.977 550.123 931.201 559.353C940.425 568.583 947.741 579.54 952.73 591.597C957.72 603.654 960.286 616.576 960.281 629.625C960.277 642.674 957.703 655.594 952.705 667.648C947.707 679.702 940.384 690.654 931.154 699.877C921.924 709.101 910.968 716.417 898.911 721.406C886.853 726.396 873.931 728.962 860.883 728.958Z" fill="black"/>
</svg>
